<svg width="100" height="100" viewBox="0 0 163 105" fill="none" xmlns="http://www.w3.org/2000/svg">
<path fill-rule="evenodd" clip-rule="evenodd" d="M90.3288 24.6696C91.0079 24.7169 91.4926 23.9876 91.1352 23.4083C82.4674 9.36169 66.9363 0 49.2188 0C22.036 0 0 22.036 0 49.2188C0 76.4015 22.036 98.4375 49.2188 98.4375C66.9363 98.4375 82.4674 89.0758 91.1351 75.0292C91.4926 74.4499 91.0079 73.7206 90.3288 73.7679C89.7556 73.8078 89.1771 73.8281 88.5938 73.8281C83.7905 73.8281 79.3087 72.452 75.521 70.0726C75.1593 69.8454 74.6829 69.9186 74.4091 70.2464C68.39 77.4492 59.3395 82.0312 49.2188 82.0312C31.0969 82.0312 16.4062 67.3406 16.4062 49.2188C16.4062 31.0969 31.0969 16.4062 49.2188 16.4062C59.3395 16.4062 68.39 20.9883 74.4091 28.1911C74.6829 28.5189 75.1593 28.5921 75.521 28.3649C79.3087 25.9854 83.7905 24.6094 88.5938 24.6094C89.1771 24.6094 89.7556 24.6297 90.3288 24.6696Z" fill="#0B0F0C"/>
<circle cx="88.5938" cy="49.2188" r="19.6875" fill="#0AC17F"/>
<path d="M109.069 96.625V73.3281H119.372C120.444 73.3281 121.428 73.5469 122.325 73.9844C123.244 74.4219 124.031 75.0125 124.688 75.7562C125.366 76.5 125.88 77.3312 126.23 78.25C126.602 79.1687 126.788 80.1094 126.788 81.0719C126.788 82.0562 126.613 83.0078 126.263 83.9266C125.934 84.8234 125.453 85.6109 124.819 86.2891C124.184 86.9672 123.441 87.4922 122.588 87.8641L127.903 96.625H122.916L118.125 88.8156H113.597V96.625H109.069ZM113.597 84.8453H119.273C119.842 84.8453 120.345 84.6812 120.783 84.3531C121.22 84.0031 121.57 83.5437 121.833 82.975C122.095 82.4062 122.227 81.7719 122.227 81.0719C122.227 80.3281 122.073 79.6828 121.767 79.1359C121.461 78.5672 121.067 78.1187 120.586 77.7906C120.127 77.4625 119.623 77.2984 119.077 77.2984H113.597V84.8453ZM159.737 92.6547V96.625H143.56V73.3281H159.442V77.2984H148.088V82.9094H157.899V86.5844H148.088V92.6547H159.737Z" fill="#1B1C1E"/>
<path d="M132.531 96.625V73.3281H137.059V96.625H132.531Z" fill="#242121"/>
</svg>
