<svg width="25" height="24" viewBox="0 0 25 24" fill="none" xmlns="http://www.w3.org/2000/svg">
<path d="M9.55994 2L5.93994 5.63" stroke="#1B1C1E" stroke-width="1.5" stroke-miterlimit="10" stroke-linecap="round" stroke-linejoin="round"/>
<path d="M15.9399 2L19.5599 5.63" stroke="#1B1C1E" stroke-width="1.5" stroke-miterlimit="10" stroke-linecap="round" stroke-linejoin="round"/>
<path d="M2.75 7.85001C2.75 6.00001 3.74 5.85001 4.97 5.85001H20.53C21.76 5.85001 22.75 6.00001 22.75 7.85001C22.75 10 21.76 9.85001 20.53 9.85001H4.97C3.74 9.85001 2.75 10 2.75 7.85001Z" stroke="#1B1C1E" stroke-width="1.5"/>
<path d="M10.5098 14V17.55" stroke="#1B1C1E" stroke-width="1.5" stroke-linecap="round"/>
<path d="M15.1099 14V17.55" stroke="#1B1C1E" stroke-width="1.5" stroke-linecap="round"/>
<path d="M4.25 10L5.66 18.64C5.98 20.58 6.75 22 9.61 22H15.64C18.75 22 19.21 20.64 19.57 18.76L21.25 10" stroke="#1B1C1E" stroke-width="1.5" stroke-linecap="round"/>
</svg>
