<svg width="50" height="50" viewBox="0 0 50 50" fill="none" xmlns="http://www.w3.org/2000/svg">
<path fill-rule="evenodd" clip-rule="evenodd" d="M35.2715 14.5833C35.3377 14.4356 35.3688 14.2747 35.3622 14.1131H35.4167C35.1837 8.55394 30.5935 4.16663 25.0103 4.16663C19.4271 4.16663 14.8369 8.55394 14.6039 14.1131C14.5765 14.2687 14.5765 14.4278 14.6039 14.5833H14.4411C11.7713 14.5833 8.91738 16.3457 8.08883 21.0834L6.46855 33.989C5.14287 43.4644 10.0221 45.8333 16.3928 45.8333H33.6635C40.0157 45.8333 44.7477 42.4032 43.5693 33.989L41.9674 21.0834C40.9916 16.4784 38.2297 14.5833 35.5968 14.5833H35.2715ZM32.2775 14.5833C32.2195 14.4332 32.1888 14.274 32.1868 14.1131C32.1868 10.1183 28.9372 6.87993 24.9286 6.87993C20.9201 6.87993 17.6705 10.1183 17.6705 14.1131C17.698 14.2687 17.698 14.4278 17.6705 14.5833H32.2775ZM18.9521 25.3095C17.9352 25.3095 17.1108 24.461 17.1108 23.4144C17.1108 22.3678 17.9352 21.5193 18.9521 21.5193C19.969 21.5193 20.7933 22.3678 20.7933 23.4144C20.7933 24.461 19.969 25.3095 18.9521 25.3095ZM29.1709 23.4144C29.1709 24.461 29.9952 25.3095 31.0121 25.3095C32.029 25.3095 32.8533 24.461 32.8533 23.4144C32.8533 22.3678 32.029 21.5193 31.0121 21.5193C29.9952 21.5193 29.1709 22.3678 29.1709 23.4144Z" fill="#B4B4B4"/>
</svg>
