<svg width="86" height="147" viewBox="0 0 86 147" fill="none" xmlns="http://www.w3.org/2000/svg">
<path d="M31.5622 42.682L31.2877 42.9143C31.1863 43.003 31.0723 43.0875 30.9625 43.172C30.7429 43.3451 30.5401 43.5183 30.2867 43.683C29.8306 44.0167 29.3449 44.3207 28.8592 44.6248C27.8795 45.2287 26.8527 45.7527 25.7888 46.1917C24.7294 46.6431 23.6382 47.0158 22.5241 47.3067C22.2453 47.3827 21.9581 47.4334 21.6794 47.4968L21.257 47.5897C21.1683 47.5897 21.257 47.5897 21.257 47.6108C21.3146 47.6243 21.3691 47.6487 21.4175 47.6826C21.4555 47.7206 21.4555 47.7206 21.4386 47.7122C21.3551 47.5883 21.2897 47.4532 21.2444 47.3109C21.0945 46.8236 21.0024 46.3204 20.9698 45.8116C20.9192 45.2583 20.9023 44.6755 20.9065 44.0884C20.9065 42.9101 20.9994 41.7064 21.0923 40.4985C21.1852 39.2906 21.3331 38.0785 21.4893 36.8622C21.6456 35.6458 21.8188 34.4295 22.0004 33.23L20.4124 32.8668C19.7129 35.2773 19.1489 37.7251 18.723 40.1987C18.5018 41.4566 18.3481 42.7254 18.2626 43.9998C18.213 44.6574 18.1975 45.3171 18.2162 45.9763C18.2221 46.704 18.3142 47.4285 18.4907 48.1345C18.61 48.586 18.8041 49.0143 19.0651 49.4015C19.2476 49.6655 19.4749 49.8956 19.7366 50.0815C20.0371 50.2962 20.3821 50.4405 20.746 50.5038C21.0592 50.5566 21.3789 50.5566 21.6921 50.5038L22.1777 50.4236C22.5029 50.3687 22.8324 50.3265 23.1534 50.2547C24.4484 49.9975 25.7198 49.633 26.9544 49.165C28.1887 48.6914 29.3823 48.118 30.5233 47.4503C31.0934 47.1082 31.6509 46.7492 32.1915 46.3564C32.4618 46.1622 32.7279 45.9341 32.994 45.7483C33.1249 45.6384 33.2558 45.5329 33.3867 45.4146C33.5177 45.2963 33.6401 45.1992 33.8091 45.0387L31.5622 42.682Z" fill="#E4897B"/>
<path d="M36.1532 40.7604C31.5074 40.1311 27.7739 43.8773 27.7739 43.8773L32.0227 50.432C32.0227 50.432 36.5755 47.5179 37.378 45.5329C38.2058 43.4676 38.531 41.0687 36.1532 40.7604Z" fill="white"/>
<path opacity="0.6" d="M36.1532 40.7604C31.5074 40.1311 27.7739 43.8773 27.7739 43.8773L32.0227 50.432C32.0227 50.432 36.5755 47.5179 37.378 45.5329C38.2058 43.4676 38.531 41.0687 36.1532 40.7604Z" fill="#FAFAFA"/>
<path d="M21.9623 33.8001L23.5039 30.7086L19.4621 30.6748C19.4621 30.6748 19.3818 32.833 20.4039 34.0535L21.9623 33.8001Z" fill="#E4897B"/>
<path d="M22.7859 27.3848L19.7788 27.9211L19.4621 30.6748L23.5039 30.7086L22.7859 27.3848Z" fill="#E4897B"/>
<path d="M52.5825 142.799L48.7983 143.162L46.1798 134.276L49.964 133.908L52.5825 142.799Z" fill="#E4897B"/>
<path d="M76.6436 129.655L73.8392 132.291L67.7828 125.634L70.5872 122.999L76.6436 129.655Z" fill="#E4897B"/>
<path d="M72.5413 131.028L74.653 127.227C74.6889 127.162 74.7471 127.112 74.817 127.086C74.8868 127.06 74.9636 127.061 75.0331 127.087L78.2809 128.321C78.3613 128.355 78.4336 128.406 78.4931 128.47C78.5526 128.534 78.5979 128.61 78.6262 128.693C78.6544 128.776 78.665 128.864 78.6572 128.951C78.6494 129.038 78.6233 129.123 78.5808 129.199C77.8248 130.508 77.3898 131.104 76.4691 132.772C75.8989 133.803 74.7797 136.151 73.9983 137.578C73.217 139.006 71.7684 138.292 71.9669 137.633C72.8707 134.677 72.6975 133.017 72.4441 131.72C72.3933 131.485 72.4277 131.24 72.5413 131.028Z" fill="#263238"/>
<path d="M48.3542 142.009H52.9408C53.0229 142.01 53.1024 142.037 53.1672 142.088C53.2321 142.138 53.2786 142.208 53.2998 142.287L54.3008 145.915C54.3244 146.001 54.3277 146.091 54.3104 146.179C54.2931 146.266 54.2558 146.348 54.2013 146.419C54.1468 146.489 54.0767 146.546 53.9965 146.585C53.9162 146.624 53.8281 146.643 53.7391 146.642C52.1215 146.642 51.3571 146.642 49.3383 146.642H43.1763C41.4869 146.642 41.149 144.952 41.8417 144.792C44.9501 144.108 46.7451 143.157 47.7038 142.258C47.8815 142.096 48.1137 142.007 48.3542 142.009Z" fill="#263238"/>
<path d="M46.1798 134.276L47.5313 138.858H51.4253L49.9682 133.912L46.1798 134.276Z" fill="#CE6F64"/>
<path d="M70.5908 123.003L67.7822 125.634L70.9076 129.064L73.7119 126.433L70.5908 123.003Z" fill="#CE6F64"/>
<path d="M31.5752 38.1376C31.6048 35.0672 34.3838 33.9944 34.3838 33.9944C34.3838 33.9944 30.9079 27.4143 32.6944 23.0473C34.481 18.6802 40.3684 17.9116 42.2352 19.9515C45.5168 19.8121 46.56 24.5255 46.56 24.5255C46.56 24.5255 49.3052 24.9858 50.0443 26.9835C50.7834 28.9812 48.5323 31.2323 48.5323 31.2323C48.5323 31.2323 51.6661 31.6546 52.8191 34.0662C53.9721 36.4778 53.2626 39.6792 49.7994 42.4413C44.765 46.4535 35.5115 41.4192 35.5115 41.4192C35.5115 41.4192 31.5415 41.6684 31.5752 38.1376Z" fill="#263238"/>
<path d="M32.1699 41.1912C32.1699 41.1912 30.4805 41.9303 36.123 64.2173L51.7497 62.8616C50.9388 56.5264 50.5882 52.5902 52.5015 39.2611C50.2719 38.9974 48.0261 38.8972 45.782 38.9612C43.4025 38.997 41.0286 39.2017 38.6782 39.5736C36.4831 40.0037 34.3109 40.5436 32.1699 41.1912Z" fill="white"/>
<path opacity="0.6" d="M32.1699 41.1912C32.1699 41.1912 30.4805 41.9303 36.123 64.2173L51.7497 62.8616C50.9388 56.5264 50.5882 52.5902 52.5015 39.2611C50.2719 38.9974 48.0261 38.8972 45.782 38.9612C43.4025 38.997 41.0286 39.2017 38.6782 39.5736C36.4831 40.0037 34.3109 40.5436 32.1699 41.1912Z" fill="#FAFAFA"/>
<path d="M36.2206 40.1015C37.0315 39.9073 37.91 39.7214 38.7124 39.5736C41.0628 39.2003 43.4367 38.9942 45.8163 38.957C46.6314 38.9274 47.4465 38.9274 48.2109 38.957L47.6872 39.9537C47.5943 40.1311 45.3643 44.2912 41.1282 46.6521L39.9626 47.3025L38.8772 46.5296C36.1404 44.5742 35.7349 42.0316 36.2206 40.1015Z" fill="#FAFAFA"/>
<path d="M44.4188 31.0211C44.1696 33.3482 44.0851 37.5759 45.8125 38.9612C45.8125 38.9612 43.8359 42.7158 40.094 44.798C36.7828 42.4413 38.7087 39.5736 38.7087 39.5736C41.2047 38.7289 40.9767 36.8621 40.3981 35.1221L44.4188 31.0211Z" fill="#E4897B"/>
<path d="M42.7752 32.6936L40.3847 35.1221C40.5304 35.5256 40.6406 35.9411 40.7141 36.3638C41.6729 36.1399 43.0666 35.139 43.0835 34.1085C43.0643 33.6224 42.96 33.1435 42.7752 32.6936Z" fill="#CE6F64"/>
<path d="M44.5194 25.7419C44.9797 29.5429 45.2543 31.1521 43.7043 33.4369C41.3729 36.8664 36.592 36.5961 35.0082 33.0146C33.5807 29.7795 33.0697 24.0947 36.4864 21.9196C37.2356 21.4375 38.0954 21.1545 38.9845 21.0977C39.8735 21.0408 40.7624 21.2118 41.5669 21.5946C42.3714 21.9774 43.0648 22.5592 43.5815 23.285C44.0982 24.0107 44.421 24.8564 44.5194 25.7419Z" fill="#E4897B"/>
<path d="M41.572 21.0581C38.6367 21.8183 41.5382 30.7466 46.2178 28.1576C46.2178 28.1576 46.0066 24.3861 44.7058 22.7854C43.9191 21.8318 42.7984 21.214 41.572 21.0581Z" fill="#263238"/>
<path d="M41.8848 21.5522C40.6177 23.6133 31.2206 27.5199 34.3797 23.0853C37.5389 18.6507 41.8848 21.5522 41.8848 21.5522Z" fill="#263238"/>
<path d="M45.7277 29.0319C45.7804 29.7724 45.5392 30.5038 45.0562 31.0676C44.4058 31.8067 43.5484 31.359 43.2781 30.4636C43.0374 29.6612 43.0839 28.3097 43.9497 27.8958C44.1407 27.8115 44.3497 27.7758 44.5579 27.7918C44.7661 27.8078 44.9672 27.875 45.1431 27.9874C45.3191 28.0998 45.4645 28.254 45.5665 28.4363C45.6685 28.6185 45.7239 28.8231 45.7277 29.0319Z" fill="#E4897B"/>
<path d="M36.1401 64.2173C36.1401 64.2173 30.8481 87.632 34.3789 104.137C36.7441 115.194 45.2796 137.528 45.2796 137.528L51.9526 137.359C51.9526 137.359 45.495 113.919 44.1562 104.703C41.8713 88.9328 47.5941 63.2248 47.5941 63.2248L36.1401 64.2173Z" fill="#263238"/>
<path d="M42.2436 68.9433L45.5801 74.2057C44.5744 80.4459 43.937 86.7398 43.6711 93.0549C38.9789 84.6545 41.2004 73.3906 42.2436 68.9433Z" fill="#263238"/>
<path d="M44.7315 137.874L52.9756 137.663L52.4983 135.133L43.4982 135.56L44.7315 137.874Z" fill="white"/>
<path opacity="0.6" d="M44.7315 137.874L52.9756 137.663L52.4983 135.133L43.4982 135.56L44.7315 137.874Z" fill="#FAFAFA"/>
<path d="M39.5611 63.9639C39.5611 63.9639 42.6653 88.7977 49.3974 102.355C54.833 113.289 69.3363 128.916 69.3363 128.916L73.0444 125.094C73.0444 125.094 63.2461 108.154 59.2042 100.877C49.2961 83.0411 57.3966 69.4332 51.7794 62.8658L39.5611 63.9639Z" fill="#263238"/>
<path d="M68.965 129.406L73.7544 124.739L72.1622 122.577L66.9462 127.97L68.965 129.406Z" fill="white"/>
<path opacity="0.6" d="M68.965 129.406L73.7544 124.739L72.1622 122.577L66.9462 127.97L68.965 129.406Z" fill="#FAFAFA"/>
<path d="M51.9403 61.924L52.7639 63.2628C52.8314 63.3684 52.709 63.4909 52.5316 63.5036L36.1235 64.9226C35.9799 64.9226 35.8575 64.8762 35.8406 64.7875L35.5787 63.4022C35.5787 63.3051 35.6759 63.2121 35.8321 63.1995L51.6742 61.8269C51.7232 61.8187 51.7734 61.8233 51.8201 61.8403C51.8667 61.8574 51.9081 61.8862 51.9403 61.924Z" fill="white"/>
<path opacity="0.3" d="M51.9403 61.924L52.7639 63.2628C52.8314 63.3684 52.709 63.4909 52.5316 63.5036L36.1235 64.9226C35.9799 64.9226 35.8575 64.8762 35.8406 64.7875L35.5787 63.4022C35.5787 63.3051 35.6759 63.2121 35.8321 63.1995L51.6742 61.8269C51.7232 61.8187 51.7734 61.8233 51.8201 61.8403C51.8667 61.8574 51.9081 61.8862 51.9403 61.924Z" fill="black"/>
<path d="M49.9637 63.8752L50.386 63.8372C50.4705 63.8372 50.5296 63.7823 50.5212 63.7274L50.1622 61.9282C50.1622 61.8733 50.0735 61.8353 49.989 61.8438L49.5667 61.8818C49.4822 61.8818 49.4231 61.9367 49.4315 61.9916L49.7863 63.7908C49.8032 63.8499 49.8792 63.8752 49.9637 63.8752Z" fill="#263238"/>
<path d="M37.3265 64.9733L37.7488 64.9353C37.8333 64.9353 37.8924 64.8804 37.884 64.8255L37.525 63.0221C37.525 62.9714 37.4363 62.9334 37.3518 62.9419L36.9295 62.9799C36.845 62.9799 36.7859 63.0348 36.7943 63.0855L37.1491 64.8889C37.166 64.9438 37.2378 64.9776 37.3265 64.9733Z" fill="#263238"/>
<path d="M43.6458 64.4243L44.0681 64.3905C44.1526 64.3905 44.2117 64.3314 44.2033 64.2807L43.8443 62.4773C43.8443 62.4266 43.7556 62.3886 43.6711 62.397L43.2488 62.4308C43.1643 62.4308 43.1052 62.4899 43.1137 62.5406L43.4684 64.344C43.4853 64.3947 43.574 64.4327 43.6458 64.4243Z" fill="#263238"/>
<path d="M38.9997 27.8409C39.0546 28.145 38.9364 28.4237 38.7379 28.4617C38.5394 28.4998 38.3155 28.2801 38.2733 27.9718C38.2311 27.6635 38.3324 27.3848 38.5352 27.351C38.7379 27.3172 38.9279 27.5537 38.9997 27.8409Z" fill="#263238"/>
<path d="M35.549 28.4744C35.604 28.7785 35.4857 29.0572 35.2872 29.0952C35.0887 29.1332 34.8649 28.9136 34.8226 28.6053C34.7804 28.297 34.8817 28.0183 35.0845 27.9845C35.2872 27.9507 35.473 28.1661 35.549 28.4744Z" fill="#263238"/>
<path d="M35.1562 27.976L34.3834 27.9C34.3834 27.9 34.8648 28.3984 35.1562 27.976Z" fill="#263238"/>
<path d="M36.5457 28.8207C36.398 29.5702 36.1494 30.2962 35.8066 30.9789C35.9838 31.0615 36.177 31.1044 36.3725 31.1044C36.5681 31.1044 36.7613 31.0615 36.9385 30.9789L36.5457 28.8207Z" fill="#DE5753"/>
<path d="M38.2229 31.9925C38.635 31.9287 39.0258 31.7669 39.3624 31.5207C39.6989 31.2745 39.9715 30.9511 40.1572 30.5777C40.1642 30.5592 40.1637 30.5387 40.1558 30.5205C40.1479 30.5024 40.1333 30.4881 40.115 30.4805C40.1062 30.4764 40.0966 30.4741 40.0868 30.4737C40.0771 30.4734 40.0673 30.4751 40.0582 30.4786C40.0491 30.4822 40.0409 30.4876 40.0339 30.4944C40.027 30.5013 40.0215 30.5095 40.0178 30.5185C39.8399 30.8666 39.5823 31.1677 39.266 31.3975C38.9497 31.6272 38.5836 31.779 38.1975 31.8405C38.1774 31.8405 38.1581 31.8485 38.1438 31.8628C38.1295 31.877 38.1215 31.8963 38.1215 31.9165C38.1215 31.9367 38.1295 31.956 38.1438 31.9703C38.1581 31.9845 38.1774 31.9925 38.1975 31.9925H38.2229Z" fill="#263238"/>
<path d="M39.8236 25.442C39.8559 25.4426 39.8875 25.4329 39.9139 25.4143C39.9403 25.3958 39.9601 25.3693 39.9705 25.3387C39.9808 25.3081 39.9812 25.275 39.9715 25.2443C39.9618 25.2135 39.9425 25.1866 39.9165 25.1674C39.694 24.9882 39.4317 24.8651 39.1516 24.8085C38.8716 24.7519 38.582 24.7635 38.3074 24.8422C38.2885 24.8489 38.2711 24.8592 38.2563 24.8725C38.2414 24.8859 38.2292 24.902 38.2206 24.9201C38.212 24.9381 38.207 24.9577 38.206 24.9777C38.2049 24.9977 38.2078 25.0177 38.2145 25.0365C38.2211 25.0554 38.2314 25.0728 38.2448 25.0877C38.2581 25.1026 38.2743 25.1147 38.2923 25.1233C38.3104 25.1319 38.33 25.1369 38.3499 25.138C38.3699 25.139 38.3899 25.1361 38.4088 25.1294C38.6354 25.0671 38.8736 25.0599 39.1035 25.1084C39.3335 25.1569 39.5485 25.2597 39.7307 25.4082C39.7576 25.4285 39.79 25.4402 39.8236 25.442Z" fill="#263238"/>
<path d="M33.5729 27.3087C33.5954 27.3086 33.6176 27.3037 33.6381 27.2942C33.6585 27.2847 33.6766 27.271 33.6912 27.2538C33.8354 27.0678 34.0215 26.9184 34.2343 26.8179C34.4471 26.7173 34.6807 26.6685 34.916 26.6752C34.9561 26.6788 34.9961 26.6668 35.0276 26.6416C35.0591 26.6164 35.0796 26.5801 35.0849 26.5401C35.0872 26.5203 35.0856 26.5003 35.08 26.4812C35.0744 26.4621 35.065 26.4443 35.0524 26.429C35.0398 26.4136 35.0242 26.4009 35.0065 26.3917C34.9889 26.3825 34.9696 26.3769 34.9498 26.3754C34.6639 26.3606 34.3787 26.4152 34.1184 26.5343C33.8581 26.6534 33.6304 26.8336 33.4547 27.0596C33.427 27.0886 33.4116 27.1272 33.4116 27.1673C33.4116 27.2074 33.427 27.2459 33.4547 27.275C33.4884 27.3007 33.5307 27.3127 33.5729 27.3087Z" fill="#263238"/>
<path d="M51.3491 44.8698C51.9844 46.13 52.6894 47.3539 53.4609 48.5357C54.2211 49.7014 55.0235 50.8417 55.8893 51.9398C56.7642 53.0418 57.7019 54.0924 58.6979 55.0862C59.2132 55.5719 59.7158 56.0661 60.269 56.5222L60.6914 56.8685L60.7927 56.953L60.9279 57.0586C61.017 57.1313 61.11 57.1989 61.2066 57.2613C61.5906 57.5244 62.0083 57.7346 62.4483 57.8864C63.2771 58.1567 64.1527 58.253 65.0204 58.1693C65.7977 58.0916 66.5631 57.9229 67.301 57.6668C68.6681 57.1898 69.9715 56.5473 71.1824 55.7535C73.5121 54.2423 75.658 52.4649 77.5767 50.4574L76.4532 49.279C75.4438 50.0899 74.3795 50.8966 73.2899 51.6272C72.2226 52.3749 71.1112 53.0575 69.9618 53.6714C68.8675 54.2725 67.7122 54.7553 66.5155 55.1116C65.3752 55.4283 64.2306 55.4832 63.4408 55.1538C62.9946 54.9598 62.5955 54.6716 62.2709 54.3091C61.8021 53.8868 61.3671 53.418 60.9237 52.9619C60.0579 52.02 59.2554 51.0106 58.4656 50.0054C57.6758 49.0003 56.9621 47.8937 56.2694 46.7956C55.9189 46.2466 55.5852 45.6891 55.2558 45.1316C54.9264 44.5741 54.6096 43.9871 54.3351 43.4633L51.3491 44.8698Z" fill="#E4897B"/>
<path d="M75.3844 49.7816L76.8879 46.6732L79.3882 49.8492C79.3882 49.8492 77.7326 51.2303 76.1235 51.1796L75.3844 49.7816Z" fill="#E4897B"/>
<path d="M78.5314 45.7651L79.9463 48.4724L79.3888 49.8492L76.8885 46.6732L78.5314 45.7651Z" fill="#E4897B"/>
<path d="M52.5353 39.2611C54.4527 39.5989 57.1431 45.1021 57.1431 45.1021L51.8764 49.8619C51.8764 49.8619 48.4639 45.2794 48.6666 42.7792C48.8398 40.6463 50.0942 38.8303 52.5353 39.2611Z" fill="white"/>
<path opacity="0.6" d="M52.5353 39.2611C54.4527 39.5989 57.1431 45.1021 57.1431 45.1021L51.8764 49.8619C51.8764 49.8619 48.4639 45.2794 48.6666 42.7792C48.8398 40.6463 50.0942 38.8303 52.5353 39.2611Z" fill="#FAFAFA"/>
<path d="M71.8031 133.068C71.8535 133.068 71.9036 133.06 71.951 133.042C72.4113 132.89 72.7112 132.041 72.8505 131.547C72.8547 131.533 72.8545 131.518 72.85 131.503C72.8455 131.489 72.8369 131.476 72.8252 131.467C72.8124 131.46 72.7978 131.456 72.783 131.456C72.7681 131.456 72.7536 131.46 72.7407 131.467C72.6014 131.539 71.3766 132.198 71.3386 132.679C71.3328 132.732 71.342 132.785 71.3652 132.833C71.3883 132.881 71.4245 132.921 71.4695 132.949C71.5646 133.025 71.6819 133.066 71.8031 133.068ZM72.6478 131.682C72.4366 132.362 72.1621 132.81 71.9003 132.899C71.8405 132.917 71.7772 132.919 71.7165 132.905C71.6558 132.89 71.5997 132.861 71.5539 132.819C71.5309 132.805 71.5122 132.785 71.5003 132.761C71.4883 132.737 71.4834 132.71 71.4864 132.683C71.5117 132.388 72.2297 131.919 72.652 131.682H72.6478Z" fill="white"/>
<path d="M71.6132 131.872C72.0308 131.871 72.4424 131.774 72.8169 131.59C72.8287 131.584 72.8386 131.575 72.8453 131.564C72.8521 131.552 72.8554 131.539 72.8549 131.526C72.8548 131.512 72.8508 131.498 72.8434 131.486C72.8359 131.474 72.8253 131.465 72.8127 131.459C72.7747 131.459 71.8033 130.905 71.2796 131.091C71.2152 131.112 71.1563 131.147 71.1073 131.194C71.0584 131.241 71.0205 131.298 70.9966 131.361C70.9632 131.422 70.9517 131.493 70.964 131.561C70.9763 131.63 71.0117 131.692 71.0642 131.737C71.2276 131.841 71.4204 131.889 71.6132 131.872ZM72.61 131.526C72.1876 131.704 71.3894 131.813 71.1613 131.619C71.1233 131.59 71.0895 131.535 71.136 131.416C71.1528 131.374 71.1789 131.335 71.2125 131.304C71.2462 131.272 71.2864 131.249 71.3303 131.235C71.6893 131.108 72.3354 131.391 72.61 131.526Z" fill="white"/>
<path d="M46.3186 142.752C46.7454 142.742 47.1699 142.688 47.5856 142.592C47.6014 142.588 47.6156 142.58 47.6262 142.567C47.6369 142.555 47.6434 142.54 47.6448 142.524C47.647 142.508 47.6441 142.493 47.6365 142.479C47.6288 142.465 47.6169 142.454 47.6025 142.448C47.4125 142.359 45.7527 141.603 45.3303 141.874C45.2926 141.9 45.2626 141.935 45.2433 141.977C45.224 142.019 45.2161 142.064 45.2205 142.11C45.2255 142.193 45.2486 142.273 45.2879 142.346C45.3273 142.419 45.3822 142.483 45.4486 142.532C45.7099 142.692 46.0131 142.768 46.3186 142.752ZM47.3069 142.49C46.8128 142.583 45.9005 142.701 45.5246 142.418C45.4749 142.381 45.434 142.334 45.4048 142.279C45.3756 142.224 45.3588 142.164 45.3557 142.102C45.3532 142.083 45.3558 142.063 45.3632 142.045C45.3706 142.028 45.3826 142.012 45.3979 142C45.6344 141.84 46.6185 142.186 47.3069 142.49Z" fill="white"/>
<path d="M47.5522 142.592C47.5685 142.598 47.5867 142.598 47.6029 142.592C47.6134 142.582 47.6213 142.57 47.6258 142.557C47.6302 142.544 47.6311 142.529 47.6283 142.516C47.6283 142.448 47.2313 140.805 46.3317 140.911C46.1036 140.936 46.0445 141.05 46.0318 141.139C45.9727 141.561 47.0243 142.406 47.5227 142.604L47.5522 142.592ZM46.4119 141.042C46.9905 141.042 47.3242 141.996 47.4382 142.38C46.8934 142.093 46.1458 141.409 46.1712 141.143C46.1712 141.122 46.1712 141.063 46.3359 141.046L46.4119 141.042Z" fill="white"/>
<path d="M38.6235 27.351L37.8507 27.2707C37.8507 27.2707 38.3321 27.7775 38.6235 27.351Z" fill="#263238"/>
<path opacity="0.6" d="M70.397 3.28165L82.7759 83.303L13.123 94.0643L0.744133 14.0387L70.397 3.28165ZM41.779 48.7976C44.9761 48.3028 47.9545 46.8708 50.3376 44.6829C52.7206 42.495 54.4012 39.6494 55.1666 36.5061C55.9321 33.3629 55.748 30.0632 54.6378 27.0246C53.5275 23.9859 51.5409 21.3449 48.9293 19.4356C46.3177 17.5262 43.1985 16.4344 39.9662 16.2982C36.734 16.162 33.534 16.9876 30.771 18.6705C28.0081 20.3534 25.8064 22.818 24.4444 25.7524C23.0825 28.6869 22.6215 31.9594 23.1199 35.1559C23.7875 39.4381 26.1277 43.2803 29.6264 45.8381C33.125 48.396 37.496 49.4605 41.779 48.7976Z" fill="white"/>
<g style="mix-blend-mode:multiply" opacity="0.3">
<path d="M15.2258 91.0276H15.3314L85.0898 80.2199V80.1143L72.6772 0H72.5758L2.81737 10.8078V10.9133L15.2258 91.0276ZM84.8491 80.0467L15.4032 90.7869L3.05811 10.964L72.504 0.240736L84.8491 80.0467Z" fill="white"/>
</g>
<path d="M39.27 49.6253C40.1425 49.6244 41.0137 49.5566 41.8759 49.4226C46.2086 48.7466 50.1112 46.4188 52.7648 42.9276C55.4184 39.4364 56.6166 35.0532 56.1082 30.6975C55.5998 26.3419 53.4242 22.3525 50.0379 19.5663C46.6516 16.7801 42.3177 15.4137 37.9458 15.7538C33.5738 16.0939 29.5034 18.1141 26.5887 21.3905C23.6741 24.6669 22.1416 28.9448 22.3129 33.3267C22.4843 37.7085 24.346 41.8537 27.5076 44.8925C30.6692 47.9314 34.8848 49.6276 39.27 49.6253ZM41.6816 48.1725C38.6101 48.647 35.4668 48.2002 32.6493 46.8884C29.8317 45.5767 27.4664 43.459 25.8523 40.8031C24.2382 38.1471 23.4478 35.0722 23.5812 31.9672C23.7145 28.8621 24.7655 25.8663 26.6013 23.3585C28.4371 20.8507 30.9753 18.9435 33.895 17.8781C36.8146 16.8128 39.9846 16.637 43.0041 17.3731C46.0236 18.1092 48.7571 19.724 50.8589 22.0135C52.9607 24.303 54.3365 27.1643 54.8122 30.2356C55.4447 34.3547 54.4174 38.5564 51.9558 41.9191C49.4942 45.2817 45.7992 47.5307 41.6816 48.1725Z" fill="#FAFAFA"/>
<path d="M55.2327 53.7483L70.5757 51.3759L71.1088 54.8235L55.7658 57.1959L55.2327 53.7483Z" fill="white"/>
<path opacity="0.6" d="M55.2327 53.7483L70.5757 51.3759L71.1088 54.8235L55.7658 57.1959L55.2327 53.7483Z" fill="#FAFAFA"/>
<path d="M42.8321 55.6666L53.2124 54.0615L53.7455 57.5091L43.3652 59.1142L42.8321 55.6666Z" fill="white"/>
<path opacity="0.6" d="M42.8321 55.6666L53.2124 54.0615L53.7455 57.5091L43.3652 59.1142L42.8321 55.6666Z" fill="#FAFAFA"/>
<path d="M16.1765 66.9412L71.6592 58.3619L72.1923 61.8095L16.7096 70.3887L16.1765 66.9412Z" fill="#FAFAFA"/>
<path d="M44.7509 69.8382L72.3887 65.6507L72.912 69.1043L45.2742 73.2919L44.7509 69.8382Z" fill="#FAFAFA"/>
<path d="M22.0243 73.5428L40.481 70.6888L41.0141 74.1364L22.5574 76.9904L22.0243 73.5428Z" fill="#FAFAFA"/>
<path d="M29.5681 79.8843L73.9233 73.0257L74.4564 76.4733L30.1012 83.3319L29.5681 79.8843Z" fill="#FAFAFA"/>
<path d="M9.01222e-05 94.0643H0.422433C0.420877 93.0162 0.549985 91.972 0.806767 90.9559L0.384424 90.8545C0.12326 91.9043 -0.00585079 92.9825 9.01222e-05 94.0643ZM1.65568 88.6076C2.58503 86.6628 3.98967 84.9836 5.73975 83.7253L5.49478 83.3832C3.68741 84.681 2.23513 86.4121 1.27135 88.4176L1.65568 88.6076Z" fill="white"/>
<path opacity="0.6" d="M9.01222e-05 94.0643H0.422433C0.420877 93.0162 0.549985 91.972 0.806767 90.9559L0.384424 90.8545C0.12326 91.9043 -0.00585079 92.9825 9.01222e-05 94.0643ZM1.65568 88.6076C2.58503 86.6628 3.98967 84.9836 5.73975 83.7253L5.49478 83.3832C3.68741 84.681 2.23513 86.4121 1.27135 88.4176L1.65568 88.6076Z" fill="#FAFAFA"/>
<path d="M13.1231 82.4203C15.426 82.4203 17.6773 83.1032 19.5921 84.3827C21.507 85.6622 22.9994 87.4807 23.8807 89.6084C24.762 91.736 24.9926 94.0772 24.5433 96.336C24.0941 98.5947 22.9851 100.669 21.3566 102.298C19.7282 103.926 17.6534 105.035 15.3947 105.485C13.136 105.934 10.7948 105.703 8.66712 104.822C6.53945 103.941 4.7209 102.448 3.44144 100.533C2.16198 98.6185 1.47907 96.3673 1.47907 94.0643C1.47907 90.9761 2.70585 88.0144 4.88952 85.8308C7.0732 83.6471 10.0349 82.4203 13.1231 82.4203ZM13.1231 104.201C15.1278 104.201 17.0876 103.606 18.7545 102.492C20.4214 101.379 21.7206 99.7954 22.4877 97.9433C23.2549 96.0911 23.4557 94.0531 23.0646 92.0868C22.6734 90.1206 21.7081 88.3145 20.2905 86.8969C18.8729 85.4793 17.0668 84.514 15.1006 84.1229C13.1343 83.7317 11.0963 83.9325 9.24411 84.6997C7.39196 85.4668 5.80889 86.766 4.69511 88.4329C3.58132 90.0998 2.98684 92.0596 2.98684 94.0643C2.98684 96.7526 4.05477 99.3308 5.95568 101.232C7.85659 103.133 10.4348 104.201 13.1231 104.201Z" fill="white"/>
<path opacity="0.6" d="M13.1231 82.4203C15.426 82.4203 17.6773 83.1032 19.5921 84.3827C21.507 85.6622 22.9994 87.4807 23.8807 89.6084C24.762 91.736 24.9926 94.0772 24.5433 96.336C24.0941 98.5947 22.9851 100.669 21.3566 102.298C19.7282 103.926 17.6534 105.035 15.3947 105.485C13.136 105.934 10.7948 105.703 8.66712 104.822C6.53945 103.941 4.7209 102.448 3.44144 100.533C2.16198 98.6185 1.47907 96.3673 1.47907 94.0643C1.47907 90.9761 2.70585 88.0144 4.88952 85.8308C7.0732 83.6471 10.0349 82.4203 13.1231 82.4203ZM13.1231 104.201C15.1278 104.201 17.0876 103.606 18.7545 102.492C20.4214 101.379 21.7206 99.7954 22.4877 97.9433C23.2549 96.0911 23.4557 94.0531 23.0646 92.0868C22.6734 90.1206 21.7081 88.3145 20.2905 86.8969C18.8729 85.4793 17.0668 84.514 15.1006 84.1229C13.1343 83.7317 11.0963 83.9325 9.24411 84.6997C7.39196 85.4668 5.80889 86.766 4.69511 88.4329C3.58132 90.0998 2.98684 92.0596 2.98684 94.0643C2.98684 96.7526 4.05477 99.3308 5.95568 101.232C7.85659 103.133 10.4348 104.201 13.1231 104.201Z" fill="#FAFAFA"/>
<path d="M13.1229 104.196C7.5271 104.196 2.99085 99.6601 2.99085 94.0643C2.99085 88.4685 7.5271 83.9323 13.1229 83.9323C18.7186 83.9323 23.2549 88.4685 23.2549 94.0643C23.2549 99.6601 18.7186 104.196 13.1229 104.196Z" fill="white"/>
<path opacity="0.2" d="M13.1229 104.196C7.5271 104.196 2.99085 99.6601 2.99085 94.0643C2.99085 88.4685 7.5271 83.9323 13.1229 83.9323C18.7186 83.9323 23.2549 88.4685 23.2549 94.0643C23.2549 99.6601 18.7186 104.196 13.1229 104.196Z" fill="black"/>
<path d="M11.9797 99.0216L7.66553 94.7075L8.75019 93.6259L11.9797 96.8553L17.498 91.337L18.5796 92.4217L11.9797 99.0216Z" fill="#FAFAFA"/>
</svg>
