<svg width="98" height="96" viewBox="0 0 98 96" fill="none" xmlns="http://www.w3.org/2000/svg">
<line x1="-7.62939e-06" y1="0.813638" x2="11.3898" y2="0.813638" stroke="#B4B4B4" stroke-width="1.62712"/>
<line x1="0.813559" x2="0.813559" y2="13.0169" stroke="#B4B4B4" stroke-width="1.62712"/>
<line x1="86.2373" y1="0.813638" x2="97.6272" y2="0.813638" stroke="#B4B4B4" stroke-width="1.62712"/>
<line x1="96.8136" x2="96.8136" y2="13.0169" stroke="#B4B4B4" stroke-width="1.62712"/>
<line x1="11.3899" y1="93.5592" x2="3.14001e-05" y2="93.5592" stroke="#B4B4B4" stroke-width="1.62712"/>
<line x1="0.81352" y1="94.373" x2="0.813521" y2="81.3561" stroke="#B4B4B4" stroke-width="1.62712"/>
<line x1="96.8136" y1="84.6104" x2="96.8136" y2="96.0002" stroke="#B4B4B4" stroke-width="1.62712"/>
<line x1="97.6271" y1="95.1866" x2="84.6101" y2="95.1866" stroke="#B4B4B4" stroke-width="1.62712"/>
<path d="M64.5695 28.3931C64.3525 28.3931 64.1356 28.3389 63.9457 28.2304C58.739 25.5457 54.2373 24.4067 48.8406 24.4067C43.4712 24.4067 38.3729 25.6813 33.7356 28.2304C33.0847 28.583 32.2712 28.3389 31.8915 27.688C31.7224 27.3709 31.6844 27 31.7859 26.6552C31.8873 26.3103 32.12 26.0191 32.4339 25.844C37.4779 23.105 43.0101 21.6948 48.8406 21.6948C54.6169 21.6948 59.661 22.9694 65.1932 25.8169C65.8712 26.1694 66.1152 26.983 65.7627 27.6338C65.6555 27.8599 65.4866 28.0511 65.2755 28.1854C65.0644 28.3197 64.8197 28.3917 64.5695 28.3931ZM25.7627 42.6304C25.5127 42.6328 25.267 42.5658 25.0527 42.437C24.8385 42.3081 24.6641 42.1225 24.549 41.9006C24.4338 41.6787 24.3824 41.4293 24.4004 41.1799C24.4183 40.9306 24.505 40.6911 24.6508 40.488C27.3356 36.6914 30.7525 33.7084 34.8203 31.6202C43.3356 27.227 54.2373 27.1999 62.7796 31.5931C66.8474 33.6813 70.2644 36.6372 72.9491 40.4067C73.0532 40.5524 73.1273 40.7173 73.1673 40.8919C73.2073 41.0664 73.2123 41.2472 73.182 41.4237C73.1518 41.6002 73.0868 41.7689 72.991 41.9202C72.8952 42.0714 72.7704 42.2022 72.6237 42.305C72 42.7389 71.1593 42.6033 70.7254 41.9796C68.3505 38.6179 65.196 35.8821 61.5322 34.0067C53.7491 30.0202 43.7966 30.0202 36.0406 34.0338C32.3525 35.9321 29.261 38.644 26.8203 42.0609C26.6034 42.4406 26.1966 42.6304 25.7627 42.6304ZM42.7118 75.3626C42.534 75.3648 42.3577 75.3297 42.1942 75.2597C42.0308 75.1896 41.8838 75.0861 41.7627 74.9558C39.4034 72.5965 38.1288 71.0779 36.3118 67.7965C34.4406 64.4609 33.4644 60.3931 33.4644 56.027C33.4644 47.9728 40.3525 41.4101 48.8135 41.4101C57.2745 41.4101 64.1627 47.9728 64.1627 56.027C64.1627 56.7864 63.5661 57.383 62.8068 57.383C62.0474 57.383 61.4508 56.7864 61.4508 56.027C61.4508 49.4643 55.783 44.1219 48.8135 44.1219C41.844 44.1219 36.1762 49.4643 36.1762 56.027C36.1762 59.9321 37.044 63.5389 38.6983 66.4677C40.4339 69.5864 41.6271 70.9152 43.7152 73.0304C44.2305 73.5728 44.2305 74.4135 43.7152 74.9558C43.4169 75.227 43.0644 75.3626 42.7118 75.3626ZM62.1559 70.3457C58.9288 70.3457 56.0813 69.5321 53.7491 67.9321C49.7084 65.1931 47.2949 60.7457 47.2949 56.027C47.2949 55.2677 47.8915 54.6711 48.6508 54.6711C49.4101 54.6711 50.0067 55.2677 50.0067 56.027C50.0067 59.8508 51.9593 63.4575 55.2678 65.6813C57.1932 66.983 59.444 67.6067 62.1559 67.6067C62.8068 67.6067 63.8915 67.5253 64.9762 67.3355C65.7084 67.1999 66.4135 67.688 66.5491 68.4474C66.6847 69.1796 66.1966 69.8847 65.4373 70.0203C63.8915 70.3186 62.5356 70.3457 62.1559 70.3457ZM56.7051 75.9321C56.5966 75.9321 56.461 75.905 56.3525 75.8779C52.0406 74.6847 49.2203 73.0847 46.2644 70.183C44.3912 68.3334 42.9059 66.1287 41.8955 63.698C40.885 61.2673 40.3697 58.6594 40.3796 56.027C40.3796 51.6338 44.122 48.0541 48.7322 48.0541C53.3423 48.0541 57.0847 51.6338 57.0847 56.027C57.0847 58.9287 59.6067 61.2881 62.7254 61.2881C65.844 61.2881 68.3661 58.9287 68.3661 56.027C68.3661 45.8033 59.5525 37.505 48.7051 37.505C41.0034 37.505 33.9525 41.7897 30.7796 48.4338C29.722 50.6304 29.1796 53.2067 29.1796 56.027C29.1796 58.1423 29.3695 61.4779 30.9966 65.8169C31.2678 66.5219 30.9152 67.3084 30.2101 67.5525C29.5051 67.8236 28.7186 67.444 28.4745 66.766C27.1678 63.3363 26.497 59.6972 26.4949 56.027C26.4949 52.7728 27.1186 49.8169 28.339 47.2406C31.9457 39.6745 39.9457 34.766 48.7051 34.766C61.044 34.766 71.0779 44.2847 71.0779 55.9999C71.0779 60.3931 67.3356 63.9728 62.7254 63.9728C58.1152 63.9728 54.3729 60.3931 54.3729 55.9999C54.3729 53.0982 51.8508 50.7389 48.7322 50.7389C45.6135 50.7389 43.0915 53.0982 43.0915 55.9999C43.0915 60.6372 44.8813 64.9762 48.1627 68.2304C50.739 70.7796 53.2067 72.1897 57.0305 73.2474C57.7627 73.4372 58.1695 74.1965 57.9796 74.9016C57.844 75.5253 57.2745 75.9321 56.7051 75.9321Z" fill="#0AC17F"/>
</svg>
