<svg width="22" height="22" viewBox="0 0 22 22" fill="none" xmlns="http://www.w3.org/2000/svg">
<path d="M13.5402 17.975C7.24715 20.49 4.10015 21.75 2.30415 20.529C1.87812 20.2395 1.51066 19.872 1.22115 19.446C0.000153422 17.649 1.25815 14.502 3.77515 8.21C4.31215 6.868 4.58115 6.197 5.04215 5.67C5.16015 5.536 5.28615 5.41 5.42015 5.292C5.94715 4.831 6.61815 4.562 7.96015 4.025C14.2522 1.508 17.3992 0.250001 19.1962 1.471C19.6222 1.761 19.9892 2.128 20.2792 2.554C21.5002 4.351 20.2412 7.497 17.7252 13.79C17.1882 15.132 16.9192 15.803 16.4582 16.33C16.3402 16.464 16.2142 16.59 16.0802 16.708C15.5532 17.169 14.8822 17.438 13.5402 17.975Z" stroke="#1B1C1E" stroke-width="1.5"/>
<path d="M10.75 14C12.4069 14 13.75 12.6569 13.75 11C13.75 9.34315 12.4069 8 10.75 8C9.09315 8 7.75 9.34315 7.75 11C7.75 12.6569 9.09315 14 10.75 14Z" stroke="#1B1C1E" stroke-width="1.5"/>
</svg>
