<svg width="23" height="23" viewBox="0 0 23 23" fill="none" xmlns="http://www.w3.org/2000/svg">
<path d="M9.50001 16.0697C9.08579 16.0697 8.75001 16.4054 8.75001 16.8197C8.75001 17.2339 9.08579 17.5697 9.50001 17.5697H13.5C13.9142 17.5697 14.25 17.2339 14.25 16.8197C14.25 16.4054 13.9142 16.0697 13.5 16.0697H9.50001Z" fill="#1B1C1E"/>
<path fill-rule="evenodd" clip-rule="evenodd" d="M11.7108 0.253865C11.5703 0.248712 11.4297 0.248712 11.2892 0.253865C10.3618 0.287886 9.52676 0.603234 8.61115 1.12818C7.71888 1.63974 6.69165 2.38608 5.38826 3.33305L5.31741 3.38453C4.01402 4.33149 2.98676 5.07783 2.22451 5.76835C1.44232 6.47693 0.884353 7.17368 0.565422 8.04515C0.517109 8.17717 0.473653 8.31091 0.435143 8.44611C0.180923 9.33861 0.222785 10.2303 0.439096 11.2633C0.649893 12.27 1.04227 13.4776 1.54013 15.0098L1.5672 15.0931C2.06503 16.6253 2.45741 17.8329 2.87858 18.7712C3.31077 19.7341 3.801 20.4801 4.53127 21.0527C4.64189 21.1394 4.75566 21.2221 4.87234 21.3005C5.6426 21.8181 6.50355 22.0538 7.55284 22.1673C8.57539 22.2779 9.84513 22.2779 11.4562 22.2779H11.5438C13.1549 22.2779 14.4246 22.2779 15.4472 22.1673C16.4965 22.0538 17.3574 21.8181 18.1277 21.3005C18.2444 21.2221 18.3581 21.1394 18.4687 21.0527C19.199 20.4801 19.6892 19.7341 20.1214 18.7712C20.5426 17.8329 20.935 16.6253 21.4328 15.093L21.4599 15.0097C21.9577 13.4776 22.3501 12.2699 22.5609 11.2633C22.7772 10.2303 22.8191 9.33861 22.5649 8.44611C22.5264 8.31091 22.4829 8.17717 22.4346 8.04515C22.1157 7.17368 21.5577 6.47693 20.7755 5.76835C20.0132 5.07782 18.986 4.33149 17.6826 3.38452L17.6117 3.33303C16.3084 2.38607 15.2811 1.63973 14.3889 1.12818C13.4733 0.603234 12.6382 0.287886 11.7108 0.253865ZM11.3442 1.75286C11.448 1.74905 11.552 1.74905 11.6558 1.75286C12.2512 1.7747 12.8443 1.97167 13.6428 2.42948C14.4566 2.89603 15.4189 3.59396 16.7655 4.57232C18.1121 5.55068 19.0733 6.25026 19.7684 6.88002C20.4506 7.49798 20.8212 8.00112 21.026 8.56067C21.0617 8.65824 21.0938 8.75709 21.1222 8.85703C21.2855 9.43007 21.2814 10.055 21.0928 10.9558C20.9005 11.874 20.5341 13.0049 20.0198 14.5879C19.5054 16.1709 19.1371 17.3012 18.753 18.157C18.3761 18.9967 18.0121 19.5046 17.5432 19.8723C17.4614 19.9364 17.3773 19.9975 17.2911 20.0555C16.7965 20.3878 16.201 20.577 15.2859 20.676C14.3533 20.7768 13.1645 20.7779 11.5 20.7779C9.83552 20.7779 8.64673 20.7768 7.71414 20.676C6.79905 20.577 6.2035 20.3878 5.70894 20.0555C5.62269 19.9975 5.5386 19.9364 5.45684 19.8723C4.98796 19.5046 4.62396 18.9967 4.24705 18.157C3.86293 17.3012 3.4946 16.1709 2.98025 14.5879C2.4659 13.0049 2.09951 11.874 1.90725 10.9558C1.71861 10.055 1.71454 9.43007 1.87776 8.85703C1.90623 8.7571 1.93834 8.65824 1.97405 8.56067C2.17883 8.00112 2.54942 7.49798 3.23157 6.88002C3.92676 6.25026 4.88791 5.55068 6.23451 4.57232C7.5811 3.59396 8.54345 2.89603 9.35722 2.42948C10.1557 1.97167 10.7488 1.7747 11.3442 1.75286Z" fill="#1B1C1E"/>
</svg>
