<svg width="135" height="87" viewBox="0 0 135 87" fill="none" xmlns="http://www.w3.org/2000/svg">
<path fill-rule="evenodd" clip-rule="evenodd" d="M74.8439 20.4405C75.4065 20.4797 75.8082 19.8755 75.512 19.3955C68.3301 7.75683 55.4615 0 40.7812 0C18.2584 0 0 18.2584 0 40.7812C0 63.3041 18.2584 81.5625 40.7812 81.5625C55.4615 81.5625 68.3301 73.8057 75.512 62.167C75.8082 61.687 75.4065 61.0828 74.8439 61.122C74.369 61.1551 73.8896 61.1719 73.4062 61.1719C69.4264 61.1719 65.7129 60.0317 62.5745 58.0602C62.2749 57.8719 61.8801 57.9326 61.6532 58.2041C56.666 64.1722 49.167 67.9688 40.7812 67.9688C25.766 67.9688 13.5938 55.7965 13.5938 40.7812C13.5938 25.766 25.766 13.5938 40.7812 13.5938C49.167 13.5938 56.666 17.3903 61.6532 23.3584C61.8801 23.6299 62.2749 23.6906 62.5745 23.5023C65.7129 21.5308 69.4264 20.3906 73.4062 20.3906C73.8896 20.3906 74.369 20.4074 74.8439 20.4405Z" fill="white"/>
<circle cx="73.4062" cy="40.7812" r="16.3125" fill="white"/>
<path d="M90.3713 80.375V61.0719H98.9081C99.7963 61.0719 100.612 61.2531 101.355 61.6156C102.116 61.9781 102.769 62.4675 103.313 63.0837C103.874 63.7 104.3 64.3887 104.59 65.15C104.898 65.9112 105.053 66.6906 105.053 67.4881C105.053 68.3037 104.908 69.0922 104.618 69.8534C104.346 70.5966 103.947 71.2491 103.421 71.8109C102.896 72.3728 102.279 72.8078 101.573 73.1159L105.977 80.375H101.844L97.875 73.9044H94.1231V80.375H90.3713ZM94.1231 70.6147H98.8266C99.2978 70.6147 99.7147 70.4787 100.077 70.2069C100.44 69.9169 100.73 69.5362 100.947 69.065C101.165 68.5937 101.273 68.0681 101.273 67.4881C101.273 66.8719 101.147 66.3372 100.893 65.8841C100.639 65.4128 100.313 65.0412 99.9141 64.7694C99.5334 64.4975 99.1166 64.3616 98.6634 64.3616H94.1231V70.6147ZM109.811 80.375V61.0719H113.563V80.375H109.811ZM132.353 77.0853V80.375H118.95V61.0719H132.109V64.3616H122.702V69.0106H130.831V72.0556H122.702V77.0853H132.353Z" fill="white"/>
</svg>
