<svg width="50" height="50" viewBox="0 0 50 50" fill="none" xmlns="http://www.w3.org/2000/svg">
<path d="M46.5833 17.2291L45.9792 11.4583C45.1042 5.16663 42.25 2.60413 36.1458 2.60413H31.2292H28.1458H21.8125H18.7292H13.7292C7.60417 2.60413 4.77084 5.16663 3.875 11.5208L3.3125 17.25C3.10417 19.4791 3.70834 21.6458 5.02084 23.3333C6.60417 25.3958 9.04167 26.5625 11.75 26.5625C14.375 26.5625 16.8958 25.25 18.4792 23.1458C19.8958 25.25 22.3125 26.5625 25 26.5625C27.6875 26.5625 30.0417 25.3125 31.4792 23.2291C33.0833 25.2916 35.5625 26.5625 38.1458 26.5625C40.9167 26.5625 43.4167 25.3333 44.9792 23.1666C46.2292 21.5 46.7917 19.3958 46.5833 17.2291Z" fill="#B4B4B4"/>
<path d="M23.6458 34.7083C21 34.9791 19 37.2291 19 39.8958V45.6041C19 46.1666 19.4583 46.625 20.0208 46.625H29.9583C30.5208 46.625 30.9792 46.1666 30.9792 45.6041V40.625C31 36.2708 28.4375 34.2083 23.6458 34.7083Z" fill="#B4B4B4"/>
<path d="M44.5208 30V36.2084C44.5208 41.9584 39.8542 46.625 34.1042 46.625C33.5417 46.625 33.0833 46.1667 33.0833 45.6042V40.625C33.0833 37.9584 32.2708 35.875 30.6875 34.4584C29.2917 33.1875 27.3958 32.5625 25.0417 32.5625C24.5208 32.5625 24 32.5834 23.4375 32.6459C19.7292 33.0209 16.9167 36.1459 16.9167 39.8959V45.6042C16.9167 46.1667 16.4583 46.625 15.8958 46.625C10.1458 46.625 5.47916 41.9584 5.47916 36.2084V30.0417C5.47916 28.5834 6.91666 27.6042 8.27083 28.0834C8.83333 28.2709 9.39583 28.4167 9.97916 28.5C10.2292 28.5417 10.5 28.5834 10.75 28.5834C11.0833 28.625 11.4167 28.6459 11.75 28.6459C14.1667 28.6459 16.5417 27.75 18.4167 26.2084C20.2083 27.75 22.5417 28.6459 25 28.6459C27.4792 28.6459 29.7708 27.7917 31.5625 26.25C33.4375 27.7709 35.7708 28.6459 38.1458 28.6459C38.5208 28.6459 38.8958 28.625 39.25 28.5834C39.5 28.5625 39.7292 28.5417 39.9583 28.5C40.6042 28.4167 41.1875 28.2292 41.7708 28.0417C43.125 27.5834 44.5208 28.5834 44.5208 30Z" fill="#B4B4B4"/>
</svg>
