<svg width="25" height="24" viewBox="0 0 25 24" fill="none" xmlns="http://www.w3.org/2000/svg">
<path d="M15.5402 18.975C9.24715 21.49 6.10015 22.75 4.30415 21.529C3.87812 21.2395 3.51066 20.872 3.22115 20.446C2.00015 18.649 3.25815 15.502 5.77515 9.21C6.31215 7.868 6.58115 7.197 7.04215 6.67C7.16015 6.536 7.28615 6.41 7.42015 6.292C7.94715 5.831 8.61815 5.562 9.96015 5.025C16.2522 2.508 19.3992 1.25 21.1962 2.471C21.6222 2.761 21.9892 3.128 22.2792 3.554C23.5002 5.351 22.2412 8.497 19.7252 14.79C19.1882 16.132 18.9192 16.803 18.4582 17.33C18.3402 17.464 18.2142 17.59 18.0802 17.708C17.5532 18.169 16.8822 18.438 15.5402 18.975Z" stroke="#1B1C1E" stroke-width="1.5"/>
<path d="M12.75 15C14.4069 15 15.75 13.6569 15.75 12C15.75 10.3431 14.4069 9 12.75 9C11.0931 9 9.75 10.3431 9.75 12C9.75 13.6569 11.0931 15 12.75 15Z" stroke="#1B1C1E" stroke-width="1.5"/>
</svg>
